<svg id="bold" enable-background="new 0 0 32 32" height="512" viewBox="0 0 32 32" width="512" xmlns="http://www.w3.org/2000/svg"><path d="m26 32h-20c-3.314 0-6-2.686-6-6v-20c0-3.314 2.686-6 6-6h20c3.314 0 6 2.686 6 6v20c0 3.314-2.686 6-6 6z" fill="#ffe6e2"/><path d="m12.667 18.333h-.333v.667h.333c.184 0 .333-.149.333-.333s-.149-.334-.333-.334z" fill="#fd907e"/><path d="m16.167 18.333h-.5v2h.5c.092 0 .167-.075.167-.167v-1.666c-.001-.092-.076-.167-.167-.167z" fill="#fd907e"/><path d="m20.833 8h-9.667c-1.011 0-1.833.822-1.833 1.833v12.333c0 1.011.822 1.833 1.833 1.833h9.667c1.011 0 1.833-.822 1.833-1.833v-12.333c.001-1.011-.822-1.833-1.833-1.833zm-8.166 12h-.333v.833c0 .276-.224.5-.5.5s-.5-.224-.5-.5v-3c0-.276.224-.5.5-.5h.833c.735 0 1.333.598 1.333 1.333s-.598 1.334-1.333 1.334zm4.666.167c0 .643-.523 1.167-1.167 1.167h-1c-.276 0-.5-.224-.5-.5v-3c0-.276.224-.5.5-.5h1c.643 0 1.167.523 1.167 1.167zm2.834-1.167c.276 0 .5.224.5.5s-.224.5-.5.5h-1.167v.833c0 .276-.224.5-.5.5s-.5-.224-.5-.5v-2.333c0-.643.523-1.167 1.167-1.167h1c.276 0 .5.224.5.5s-.224.5-.5.5h-1c-.092 0-.167.075-.167.167v.5z" fill="#fc573b"/></svg>